<?xml version="1.0" encoding="UTF-8" standalone="no"?><!DOCTYPE svg PUBLIC "-//W3C//DTD SVG 1.1//EN" "http://www.w3.org/Graphics/SVG/1.1/DTD/svg11.dtd"><svg width="100%" height="100%" viewBox="0 0 200 158" version="1.1" xmlns="http://www.w3.org/2000/svg" xmlns:xlink="http://www.w3.org/1999/xlink" xml:space="preserve" xmlns:serif="http://www.serif.com/" style="fill-rule:evenodd;clip-rule:evenodd;stroke-linejoin:round;stroke-miterlimit:1.41421;"><g><path d="M99.179,41.013c-27.084,0 -53.375,11.55 -71.692,31.87c-1.192,1.192 -1.992,2.784 -1.608,3.975c0,2 0.796,3.192 1.608,4.38c1.588,0.8 2.783,1.595 3.979,1.595c1.988,0 3.579,-0.795 4.379,-1.991c16.321,-17.521 39.434,-27.479 63.334,-27.479c24.283,0 47.787,9.958 64.116,28.283c1.196,1.187 2.784,1.979 4.38,1.979c1.191,0 2.795,-0.392 3.975,-1.587c2.391,-1.988 2.391,-5.971 0.416,-8.355c-18.333,-20.32 -45.008,-32.67 -72.887,-32.67Z" style="fill:#333;fill-opacity:0.14902;"/><path d="M197.941,43.013c-25.491,-27.48 -61.333,-43.013 -98.762,-43.013c-37.046,0 -72.088,15.133 -97.579,41.808c-1.2,1.205 -1.596,2.8 -1.596,4.392c0,1.988 0.796,3.183 1.987,4.379c0.8,0.788 2.392,1.588 3.984,1.588c1.604,0 2.787,-0.8 3.991,-1.992c23.488,-24.696 55.35,-38.638 89.213,-38.638c34.246,0 66.9,14.351 90.008,39.434c1.175,1.196 2.783,1.992 4.379,1.992c1.592,0 2.784,-0.4 3.98,-1.596c1.191,-1.192 1.991,-2.384 1.991,-3.975c0,-1.592 -0.8,-3.188 -1.596,-4.379Z" style="fill:#333;fill-opacity:0.14902;"/><path d="M99.562,123.458c-9.15,0 -17.121,7.559 -17.121,17.125c0,9.563 7.971,17.125 17.121,17.125c9.563,0 17.142,-7.562 17.142,-17.125c0,-9.566 -7.579,-17.125 -17.142,-17.125Z" style="fill:#333;fill-opacity:0.74902;"/><path d="M99.179,85.629c-17.125,0 -33.067,7.163 -44.213,19.913c-1.204,1.191 -1.583,2.787 -1.204,4.375c0,1.596 0.796,2.787 2.004,3.987c0.792,0.784 2.388,1.584 3.579,1.584c1.992,0 3.584,-0.8 4.78,-1.992c8.766,-10.342 21.495,-16.329 35.054,-16.329c13.941,0 27.087,5.987 36.237,17.129c0.796,1.192 2.784,1.987 4.379,1.987c1.205,0 2.796,-0.383 3.592,-1.179c1.592,-1.2 1.975,-2.4 1.975,-3.996c0.413,-1.587 0,-3.179 -1.179,-4.375c-10.758,-13.541 -27.479,-21.104 -45.004,-21.104Z" style="fill:#333;fill-opacity:0.14902;"/></g></svg>