<?xml version="1.0" encoding="UTF-8" standalone="no"?>
<!DOCTYPE svg PUBLIC "-//W3C//DTD SVG 1.1//EN" "http://www.w3.org/Graphics/SVG/1.1/DTD/svg11.dtd">
<svg width="100%" height="100%" viewBox="0 0 130 145" version="1.1" xmlns="http://www.w3.org/2000/svg" xmlns:xlink="http://www.w3.org/1999/xlink" xml:space="preserve" xmlns:serif="http://www.serif.com/" style="fill-rule:evenodd;clip-rule:evenodd;stroke-linejoin:round;stroke-miterlimit:1.41421;">
    <g id="Calque.-1" transform="matrix(0.265533,0,0,0.259941,-4.39404,-3.1115)">
        <g opacity="0.75">
            <clipPath id="_clip1">
                <path d="M223.762,12.426C255.027,22.771 277.596,52.218 277.596,86.952C277.596,130.309 242.447,165.456 199.09,165.456C184.829,165.456 171.467,161.634 159.939,154.986C176.319,177.516 202.866,192.176 232.851,192.176C282.614,192.176 322.955,151.836 322.955,102.073C322.955,52.31 282.614,11.97 232.851,11.97C229.783,11.97 226.752,12.126 223.762,12.426Z"/>
            </clipPath>
            <g clip-path="url(#_clip1)">
                <path d="M255.331,238.892L125.928,138.373L246.13,-16.37L375.534,84.149L255.331,238.892Z" style="fill:white;fill-rule:nonzero;"/>
            </g>
            <clipPath id="_clip2">
                <path d="M220.081,224.931C220.081,235.078 228.307,243.305 238.455,243.305C248.602,243.305 256.827,235.078 256.827,224.931C256.827,214.784 248.602,206.557 238.455,206.557C228.307,206.557 220.081,214.784 220.081,224.931Z"/>
            </clipPath>
            <g clip-path="url(#_clip2)">
                <path d="M242.109,254.026L209.359,228.587L234.8,195.836L267.549,221.275L242.109,254.026Z" style="fill:white;fill-rule:nonzero;"/>
            </g>
            <clipPath id="_clip3">
                <path d="M16.548,424.333L16.548,431.612C18.528,431.748 21.074,432.176 24.186,432.891C27.294,433.611 29.873,434.379 31.923,435.198C34.724,436.293 36.503,437.643 37.254,439.247C38.005,440.854 38.383,442.854 38.383,445.244L38.383,550.617C38.383,553.353 37.869,555.488 36.844,557.027C35.819,558.563 34.179,559.776 31.923,560.663C30.488,561.212 28.028,561.622 24.543,561.894C21.058,562.168 18.393,562.374 16.548,562.508L16.548,569.788L82.05,569.788L82.05,562.508C79.794,562.443 77.041,562.082 73.8,561.433C70.551,560.783 68.21,560.187 66.775,559.637C64.385,558.613 62.691,557.232 61.704,555.488C60.71,553.746 60.215,551.747 60.215,549.491L60.215,444.219C60.215,441.964 60.66,439.914 61.549,438.068C62.435,436.223 64.18,434.89 66.775,434.071C68.961,433.389 71.525,432.825 74.465,432.381C77.4,431.936 79.93,431.681 82.05,431.612L82.05,424.333L16.548,424.333Z"/>
            </clipPath>
            <g clip-path="url(#_clip3)">
                <path d="M40.796,601.416L-53.686,478.179L57.802,392.705L152.284,515.942L40.796,601.416Z" style="fill:white;fill-rule:nonzero;"/>
            </g>
            <clipPath id="_clip4">
                <path d="M150.579,429.631C142.485,433.162 135.467,438.165 129.526,444.635C123.521,451.176 118.819,458.97 115.426,468.027C112.031,477.083 110.333,487.171 110.333,498.288C110.333,509.401 112.064,519.389 115.523,528.25C118.982,537.111 123.621,544.615 129.432,550.761C135.307,556.907 142.047,561.614 149.653,564.884C157.259,568.151 165.21,569.788 173.5,569.788C186.3,569.788 197.331,566.829 206.602,560.918C215.875,555.004 223.318,545.155 228.931,531.365L221.581,527.837C220.014,532.15 217.99,536.137 215.511,539.795C213.029,543.453 210.158,546.723 206.894,549.597C203.631,552.341 199.78,554.546 195.341,556.213C190.904,557.878 186.039,558.71 180.753,558.71C173.705,558.71 167.323,557.143 161.612,554.003C155.902,550.863 150.957,546.517 146.782,540.956C142.603,535.331 139.388,528.812 137.134,521.386C134.884,513.964 133.759,505.807 133.759,496.916C133.759,486.843 134.837,477.723 136.99,469.547C139.143,461.374 142.114,454.636 145.899,449.339C149.88,443.847 154.597,439.695 160.043,436.882C165.492,434.07 171.386,432.664 177.715,432.664C183.262,432.664 188.19,433.924 192.497,436.438C196.803,438.954 200.525,442.435 203.658,446.877C206.463,450.797 208.912,455.583 210.999,461.235C213.089,466.887 214.654,472.131 215.701,476.966L223.738,476.966L222.855,427.371L215.013,427.371L210.999,434.036C205.972,430.967 200.684,428.581 195.136,426.882C189.586,425.184 183.383,424.333 176.531,424.333C167.323,424.333 158.674,426.098 150.579,429.631Z"/>
            </clipPath>
            <g clip-path="url(#_clip4)">
                <path d="M162.789,595.703L76.606,483.292L195.717,391.973L281.899,504.385L162.789,595.703Z" style="fill:white;fill-rule:nonzero;"/>
            </g>
            <clipPath id="_clip5">
                <path d="M297.461,429.631C289.366,433.162 282.348,438.165 276.408,444.635C270.402,451.176 265.7,458.97 262.307,468.027C258.913,477.083 257.214,487.171 257.214,498.288C257.214,509.401 258.945,519.389 262.404,528.25C265.863,537.111 270.502,544.615 276.313,550.761C282.188,556.907 288.928,561.614 296.535,564.884C304.14,568.151 312.091,569.788 320.381,569.788C333.181,569.788 344.212,566.829 353.484,560.918C362.757,555.004 370.2,545.155 375.813,531.365L368.463,527.837C366.895,532.15 364.871,536.137 362.392,539.795C359.91,543.453 357.039,546.723 353.775,549.597C350.513,552.341 346.661,554.546 342.222,556.213C337.785,557.878 332.921,558.71 327.634,558.71C320.586,558.71 314.205,557.143 308.493,554.003C302.783,550.863 297.837,546.517 293.664,540.956C289.484,535.331 286.269,528.812 284.015,521.386C281.765,513.964 280.641,505.807 280.641,496.916C280.641,486.843 281.718,477.723 283.871,469.547C286.024,461.374 288.995,454.636 292.78,449.339C296.761,443.847 301.477,439.695 306.925,436.882C312.374,434.07 318.267,432.664 324.597,432.664C330.144,432.664 335.071,433.924 339.378,436.438C343.684,438.954 347.406,442.435 350.54,446.877C353.345,450.797 355.793,455.583 357.88,461.235C359.97,466.887 361.535,472.131 362.582,476.966L370.619,476.966L369.735,427.371L361.894,427.371L357.88,434.036C352.853,430.967 347.566,428.581 342.017,426.882C336.468,425.184 330.264,424.333 323.412,424.333C314.205,424.333 305.555,426.098 297.461,429.631Z"/>
            </clipPath>
            <g clip-path="url(#_clip5)">
                <path d="M309.67,595.704L223.487,483.292L342.597,391.974L428.78,504.386L309.67,595.704Z" style="fill:white;fill-rule:nonzero;"/>
            </g>
            <clipPath id="_clip6">
                <path d="M16.548,404.229C63.279,337.943 135.779,304.03 211.4,304.03C319.876,304.03 411.328,386.342 444.274,515.386L451.501,550.347C451.501,553.067 450.99,555.19 449.971,556.72C448.951,558.247 447.32,559.454 445.078,560.335C443.651,560.881 441.206,561.288 437.74,561.559C434.276,561.831 431.625,562.035 429.791,562.17L429.791,569.407L506.129,569.407L506.129,562.17C503.887,562.104 501.149,561.746 497.925,561.101C494.695,560.454 492.369,559.862 490.942,559.316C488.565,558.297 486.881,556.923 485.9,555.19C484.911,553.458 484.419,551.47 484.419,549.227L480.379,517.715L480.369,517.715C460.227,360.753 359.924,255.891 238.126,255.891C145.962,255.891 58.428,306.257 16.548,404.229Z"/>
            </clipPath>
            <g clip-path="url(#_clip6)">
                <path d="M401.911,703.573L-4.796,387.649L196.289,128.781L602.995,444.705L401.911,703.573Z" style="fill:white;fill-rule:nonzero;"/>
            </g>
        </g>
    </g>
</svg>
