<?xml version="1.0" encoding="UTF-8" standalone="no"?>
<!DOCTYPE svg PUBLIC "-//W3C//DTD SVG 1.1//EN" "http://www.w3.org/Graphics/SVG/1.1/DTD/svg11.dtd">
<svg width="100%" height="100%" viewBox="0 0 200 158" version="1.1" xmlns="http://www.w3.org/2000/svg" xmlns:xlink="http://www.w3.org/1999/xlink" xml:space="preserve" xmlns:serif="http://www.serif.com/" style="fill-rule:evenodd;clip-rule:evenodd;stroke-linejoin:round;stroke-miterlimit:1.41421;">
    <g transform="matrix(1,0,0,1,-2514.59,-2060.76)">
        <g transform="matrix(4.16667,0,0,4.16667,0,0)">
            <path d="M627.304,504.425C620.804,504.425 614.494,507.197 610.098,512.074C609.812,512.36 609.62,512.742 609.712,513.028C609.712,513.508 609.903,513.794 610.098,514.079C610.479,514.271 610.766,514.462 611.053,514.462C611.53,514.462 611.912,514.271 612.104,513.984C616.021,509.779 621.568,507.389 627.304,507.389C633.132,507.389 638.773,509.779 642.692,514.177C642.979,514.462 643.36,514.652 643.743,514.652C644.029,514.652 644.414,514.558 644.697,514.271C645.271,513.794 645.271,512.838 644.797,512.266C640.397,507.389 633.995,504.425 627.304,504.425Z" style="fill:white;fill-opacity:0.752941;"/>
        </g>
        <g transform="matrix(4.16667,0,0,4.16667,0,0)">
            <path d="M651.007,504.905C644.889,498.31 636.287,494.582 627.304,494.582C618.413,494.582 610.003,498.214 603.885,504.616C603.597,504.905 603.502,505.288 603.502,505.67C603.502,506.147 603.693,506.434 603.979,506.721C604.171,506.91 604.553,507.102 604.935,507.102C605.32,507.102 605.604,506.91 605.893,506.624C611.53,500.697 619.177,497.351 627.304,497.351C635.523,497.351 643.36,500.795 648.906,506.815C649.188,507.102 649.574,507.293 649.957,507.293C650.339,507.293 650.625,507.197 650.912,506.91C651.198,506.624 651.39,506.338 651.39,505.956C651.39,505.574 651.198,505.191 651.007,504.905Z" style="fill:white;fill-opacity:0.752941;"/>
        </g>
        <g transform="matrix(4.16667,0,0,4.16667,0,0)">
            <path d="M627.396,524.212C625.2,524.212 623.287,526.026 623.287,528.322C623.287,530.617 625.2,532.432 627.396,532.432C629.691,532.432 631.51,530.617 631.51,528.322C631.51,526.026 629.691,524.212 627.396,524.212Z" style="fill:white;fill-opacity:0.74902;"/>
        </g>
        <g transform="matrix(4.16667,0,0,4.16667,0,0)">
            <path d="M627.304,515.133C623.194,515.133 619.368,516.852 616.693,519.912C616.404,520.198 616.313,520.581 616.404,520.962C616.404,521.345 616.595,521.631 616.885,521.919C617.075,522.107 617.458,522.299 617.744,522.299C618.222,522.299 618.604,522.107 618.891,521.821C620.995,519.339 624.05,517.902 627.304,517.902C630.65,517.902 633.805,519.339 636.001,522.013C636.192,522.299 636.669,522.49 637.052,522.49C637.341,522.49 637.723,522.398 637.914,522.207C638.296,521.919 638.388,521.631 638.388,521.248C638.487,520.867 638.388,520.485 638.105,520.198C635.523,516.948 631.51,515.133 627.304,515.133Z" style="fill:white;fill-opacity:0.752941;"/>
        </g>
    </g>
</svg>
