<?xml version="1.0" encoding="UTF-8" standalone="no"?><!DOCTYPE svg PUBLIC "-//W3C//DTD SVG 1.1//EN" "http://www.w3.org/Graphics/SVG/1.1/DTD/svg11.dtd"><svg width="100%" height="100%" viewBox="0 0 520 580" version="1.1" xmlns="http://www.w3.org/2000/svg" xmlns:xlink="http://www.w3.org/1999/xlink" xml:space="preserve" style="fill-rule:evenodd;clip-rule:evenodd;stroke-linejoin:round;stroke-miterlimit:1.41421;"><g id="Calque.-1"><g><clipPath id="_clip1"><path d="M223.762,12.426c31.265,10.345 53.834,39.792 53.834,74.526c0,43.357 -35.149,78.504 -78.506,78.504c-14.261,0 -27.623,-3.822 -39.151,-10.47c16.38,22.53 42.927,37.19 72.912,37.19c49.763,0 90.104,-40.34 90.104,-90.103c0,-49.763 -40.341,-90.103 -90.104,-90.103c-3.068,0 -6.099,0.156 -9.089,0.456Z"/></clipPath><g clip-path="url(#_clip1)"><path d="M255.331,238.892l-129.403,-100.519l120.202,-154.743l129.404,100.519l-120.203,154.743Z" style="fill:url(#_Linear2);fill-rule:nonzero;"/></g><clipPath id="_clip3"><path d="M220.081,224.931c0,10.147 8.226,18.374 18.374,18.374c10.147,0 18.372,-8.227 18.372,-18.374c0,-10.147 -8.225,-18.374 -18.372,-18.374c-10.148,0 -18.374,8.227 -18.374,18.374Z"/></clipPath><g clip-path="url(#_clip3)"><path d="M242.109,254.026l-32.75,-25.439l25.441,-32.751l32.749,25.439l-25.44,32.751Z" style="fill:url(#_Linear4);fill-rule:nonzero;"/></g><clipPath id="_clip5"><path d="M16.548,424.333l0,7.279c1.98,0.136 4.526,0.564 7.638,1.279c3.108,0.72 5.687,1.488 7.737,2.307c2.801,1.095 4.58,2.445 5.331,4.049c0.751,1.607 1.129,3.607 1.129,5.997l0,105.373c0,2.736 -0.514,4.871 -1.539,6.41c-1.025,1.536 -2.665,2.749 -4.921,3.636c-1.435,0.549 -3.895,0.959 -7.38,1.231c-3.485,0.274 -6.15,0.48 -7.995,0.614l0,7.28l65.502,0l0,-7.28c-2.256,-0.065 -5.009,-0.426 -8.25,-1.075c-3.249,-0.65 -5.59,-1.246 -7.025,-1.796c-2.39,-1.024 -4.084,-2.405 -5.071,-4.149c-0.994,-1.742 -1.489,-3.741 -1.489,-5.997l0,-105.272c0,-2.255 0.445,-4.305 1.334,-6.151c0.886,-1.845 2.631,-3.178 5.226,-3.997c2.186,-0.682 4.75,-1.246 7.69,-1.69c2.935,-0.445 5.465,-0.7 7.585,-0.769l0,-7.279l-65.502,0Z"/></clipPath><g clip-path="url(#_clip5)"><path d="M40.796,601.416l-94.482,-123.237l111.488,-85.474l94.482,123.237l-111.488,85.474Z" style="fill:url(#_Linear6);fill-rule:nonzero;"/></g><clipPath id="_clip7"><path d="M150.579,429.631c-8.094,3.531 -15.112,8.534 -21.053,15.004c-6.005,6.541 -10.707,14.335 -14.1,23.392c-3.395,9.056 -5.093,19.144 -5.093,30.261c0,11.113 1.731,21.101 5.19,29.962c3.459,8.861 8.098,16.365 13.909,22.511c5.875,6.146 12.615,10.853 20.221,14.123c7.606,3.267 15.557,4.904 23.847,4.904c12.8,0 23.831,-2.959 33.102,-8.87c9.273,-5.914 16.716,-15.763 22.329,-29.553l-7.35,-3.528c-1.567,4.313 -3.591,8.3 -6.07,11.958c-2.482,3.658 -5.353,6.928 -8.617,9.802c-3.263,2.744 -7.114,4.949 -11.553,6.616c-4.437,1.665 -9.302,2.497 -14.588,2.497c-7.048,0 -13.43,-1.567 -19.141,-4.707c-5.71,-3.14 -10.655,-7.486 -14.83,-13.047c-4.179,-5.625 -7.394,-12.144 -9.648,-19.57c-2.25,-7.422 -3.375,-15.579 -3.375,-24.47c0,-10.073 1.078,-19.193 3.231,-27.369c2.153,-8.173 5.124,-14.911 8.909,-20.208c3.981,-5.492 8.698,-9.644 14.144,-12.457c5.449,-2.812 11.343,-4.218 17.672,-4.218c5.547,0 10.475,1.26 14.782,3.774c4.306,2.516 8.028,5.997 11.161,10.439c2.805,3.92 5.254,8.706 7.341,14.358c2.09,5.652 3.655,10.896 4.702,15.731l8.037,0l-0.883,-49.595l-7.842,0l-4.014,6.665c-5.027,-3.069 -10.315,-5.455 -15.863,-7.154c-5.55,-1.698 -11.753,-2.549 -18.605,-2.549c-9.208,0 -17.857,1.765 -25.952,5.298Z"/></clipPath><g clip-path="url(#_clip7)"><path d="M162.789,595.703l-86.183,-112.411l119.111,-91.319l86.182,112.412l-119.11,91.318Z" style="fill:url(#_Linear8);fill-rule:nonzero;"/></g><clipPath id="_clip9"><path d="M297.461,429.631c-8.095,3.531 -15.113,8.534 -21.053,15.004c-6.006,6.541 -10.708,14.335 -14.101,23.392c-3.394,9.056 -5.093,19.144 -5.093,30.261c0,11.113 1.731,21.101 5.19,29.962c3.459,8.861 8.098,16.365 13.909,22.511c5.875,6.146 12.615,10.853 20.222,14.123c7.605,3.267 15.556,4.904 23.846,4.904c12.8,0 23.831,-2.959 33.103,-8.87c9.273,-5.914 16.716,-15.763 22.329,-29.553l-7.35,-3.528c-1.568,4.313 -3.592,8.3 -6.071,11.958c-2.482,3.658 -5.353,6.928 -8.617,9.802c-3.262,2.744 -7.114,4.949 -11.553,6.616c-4.437,1.665 -9.301,2.497 -14.588,2.497c-7.048,0 -13.429,-1.567 -19.141,-4.707c-5.71,-3.14 -10.656,-7.486 -14.829,-13.047c-4.18,-5.625 -7.395,-12.144 -9.649,-19.57c-2.25,-7.422 -3.374,-15.579 -3.374,-24.47c0,-10.073 1.077,-19.193 3.23,-27.369c2.153,-8.173 5.124,-14.911 8.909,-20.208c3.981,-5.492 8.697,-9.644 14.145,-12.457c5.449,-2.812 11.342,-4.218 17.672,-4.218c5.547,0 10.474,1.26 14.781,3.774c4.306,2.516 8.028,5.997 11.162,10.439c2.805,3.92 5.253,8.706 7.34,14.358c2.09,5.652 3.655,10.896 4.702,15.731l8.037,0l-0.884,-49.595l-7.841,0l-4.014,6.665c-5.027,-3.069 -10.314,-5.455 -15.863,-7.154c-5.549,-1.698 -11.753,-2.549 -18.605,-2.549c-9.207,0 -17.857,1.765 -25.951,5.298Z"/></clipPath><g clip-path="url(#_clip9)"><path d="M309.67,595.704l-86.183,-112.412l119.11,-91.318l86.183,112.412l-119.11,91.318Z" style="fill:url(#_Linear10);fill-rule:nonzero;"/></g><clipPath id="_clip11"><path d="M16.548,404.229c46.731,-66.286 119.231,-100.199 194.852,-100.199c108.476,0 199.928,82.312 232.874,211.356l7.227,34.961c0,2.72 -0.511,4.843 -1.53,6.373c-1.02,1.527 -2.651,2.734 -4.893,3.615c-1.427,0.546 -3.872,0.953 -7.338,1.224c-3.464,0.272 -6.115,0.476 -7.949,0.611l0,7.237l76.338,0l0,-7.237c-2.242,-0.066 -4.98,-0.424 -8.204,-1.069c-3.23,-0.647 -5.556,-1.239 -6.983,-1.785c-2.377,-1.019 -4.061,-2.393 -5.042,-4.126c-0.989,-1.732 -1.481,-3.72 -1.481,-5.963l-4.04,-31.512l-0.01,0c-20.142,-156.962 -120.445,-261.824 -242.243,-261.824c-92.164,0 -179.698,50.366 -221.578,148.338Z"/></clipPath><g clip-path="url(#_clip11)"><path d="M401.911,703.573l-406.707,-315.924l201.085,-258.868l406.706,315.924l-201.084,258.868Z" style="fill:url(#_Linear12);fill-rule:nonzero;"/></g></g></g><defs><linearGradient id="_Linear2" x1="0" y1="0" x2="1" y2="0" gradientUnits="userSpaceOnUse" gradientTransform="matrix(-715.366,-555.686,555.686,-715.366,703.56,467.702)"><stop offset="0" style="stop-color:#f05b26;stop-opacity:1"/><stop offset="1" style="stop-color:#f58643;stop-opacity:1"/></linearGradient><linearGradient id="_Linear4" x1="0" y1="0" x2="1" y2="0" gradientUnits="userSpaceOnUse" gradientTransform="matrix(-715.366,-555.686,555.686,-715.366,646.143,541.617)"><stop offset="0" style="stop-color:#f05b26;stop-opacity:1"/><stop offset="1" style="stop-color:#f58643;stop-opacity:1"/></linearGradient><linearGradient id="_Linear6" x1="0" y1="0" x2="1" y2="0" gradientUnits="userSpaceOnUse" gradientTransform="matrix(-311.825,-406.728,406.728,-311.825,244.237,751.327)"><stop offset="0" style="stop-color:#016937;stop-opacity:1"/><stop offset="1" style="stop-color:#0e9963;stop-opacity:1"/></linearGradient><linearGradient id="_Linear8" x1="0" y1="0" x2="1" y2="0" gradientUnits="userSpaceOnUse" gradientTransform="matrix(-298.167,-388.913,388.913,-298.167,321.543,678.985)"><stop offset="0" style="stop-color:#016937;stop-opacity:1"/><stop offset="1" style="stop-color:#0e9963;stop-opacity:1"/></linearGradient><linearGradient id="_Linear10" x1="0" y1="0" x2="1" y2="0" gradientUnits="userSpaceOnUse" gradientTransform="matrix(-298.167,-388.913,388.913,-298.167,417.738,612.872)"><stop offset="0" style="stop-color:#016937;stop-opacity:1"/><stop offset="1" style="stop-color:#0e9963;stop-opacity:1"/></linearGradient><linearGradient id="_Linear12" x1="0" y1="0" x2="1" y2="0" gradientUnits="userSpaceOnUse" gradientTransform="matrix(-715.366,-555.686,555.686,-715.366,566.878,643.66)"><stop offset="0" style="stop-color:#f05b26;stop-opacity:1"/><stop offset="1" style="stop-color:#f58643;stop-opacity:1"/></linearGradient></defs></svg>